<svg width="494" height="645" viewBox="0 0 494 645" fill="none" xmlns="http://www.w3.org/2000/svg">
<path d="M446.63 144.325C446.62 149.401 443.249 152.715 438.07 152.848C432.68 152.982 427.29 152.787 421.909 153C419.313 153.104 418.642 152.282 418.664 149.734C418.784 135.439 418.723 121.139 418.723 106.844C418.723 92.5443 418.784 78.2483 418.664 63.9534C418.649 61.4503 419.187 60.5602 421.853 60.6698C427.23 60.8841 432.628 60.6744 438.012 60.7443C443.144 60.8188 446.63 64.1544 446.639 69.1782C446.684 94.2267 446.684 119.275 446.635 144.319L446.63 144.325ZM303.414 0.0735373C303.309 0.280278 303.309 0.45436 303.324 0.620943H303.189C303.25 0.432051 303.324 0.252018 303.414 0.0735373ZM493.782 30.952C493.753 14.6759 478.868 0.107831 462.513 0.104857C409.48 0.0751097 356.445 0.0897725 303.406 0.074899C291.188 0.0600256 278.965 0.0705132 266.743 0.000459069C264.716 -0.0144143 263.625 0.320225 263.634 2.75337C263.752 24.5846 263.752 46.4162 263.783 68.246C263.723 69.7095 263.602 71.174 263.602 72.6339C263.647 110.89 263.736 149.148 263.736 187.4C263.736 225.529 263.632 263.662 263.632 301.796C263.632 303.102 262.826 304.704 264.408 305.755C265.141 305.785 265.873 305.83 266.606 305.83C322.583 305.83 378.554 305.83 434.522 305.826C434.89 305.826 435.262 305.781 435.622 305.836C437.293 306.042 438 305.494 437.978 303.652C437.843 290.213 437.81 276.772 437.749 263.336C437.765 259.166 437.809 254.993 437.839 250.824C437.869 239.703 437.997 228.58 437.898 217.464C437.869 214.86 438.648 214.163 441.201 214.208C449.038 214.326 456.888 214.47 464.708 214.103C479.929 213.371 493.783 198.967 493.806 183.873C493.88 132.899 493.88 81.9301 493.79 30.9588" fill="#42AF65"/>
<path d="M135.04 212.923C123.064 212.937 111.087 212.907 99.1093 212.951C97.3289 212.961 95.4386 212.645 93.8774 213.828C93.867 213.813 93.8625 213.768 93.8476 213.754C88.8305 210.212 87.4491 205.219 87.9579 199.38C88.1558 197.087 88.0173 194.764 87.9876 192.458C87.8255 182.867 88.3522 173.267 87.69 163.684C87.6156 163.333 87.5011 162.994 87.4132 162.653C88.1231 161.43 88.0234 160.005 88.0099 158.642C87.8612 139.831 88.19 121.034 88.7508 102.232C88.9622 95.1704 91.1543 92.8075 98.2982 92.7768C110.766 92.7172 123.23 92.747 135.694 92.7663C136.676 92.7663 137.654 92.7812 138.623 92.9283C142.513 93.5204 144.732 95.769 145.061 99.7319C145.491 104.839 145.942 109.937 145.926 115.084C145.821 144.393 146.135 173.707 145.189 203.009C144.935 210.829 143.023 212.911 135.045 212.924L135.04 212.923ZM231.521 29.0889V29.0849C230.622 19.0331 225.97 11.2381 217.488 5.74975C212.988 2.01486 207.581 0.177948 201.981 0.134071C174.873 -0.0890299 147.771 0.0302331 120.668 0.0451064C101.578 0.0494198 82.4931 0.0555462 63.4027 0.0555462C53.7545 0.0512329 44.1025 0.0405674 34.4546 0.0405674C16.4519 0.0511275 2.17345 14.3272 2.16898 32.3711C2.1541 112.637 2.15857 192.9 2.16898 273.157C2.16898 291.56 15.979 305.675 34.4859 305.841C54.6506 306.026 74.8197 305.887 94.983 305.871C98.8906 305.871 102.794 305.767 106.701 305.714C117.459 305.714 128.213 305.718 138.974 305.724C159.134 305.734 179.298 305.754 199.459 305.754C217.554 305.759 231.688 291.621 231.719 273.472C231.793 229.49 231.886 185.509 231.929 141.523C231.959 105.353 231.939 69.1873 231.915 33.0211C231.915 31.7062 232.243 30.3335 231.52 29.0798" fill="#15A6D5"/>
<path d="M437.609 453.298C454.963 453.517 472.315 453.357 489.674 453.525C492.81 453.555 493.792 452.89 493.779 449.549C493.644 413.63 493.705 377.709 493.66 341.79C493.66 340.703 494.366 339.352 493.003 338.493C485.187 338.489 477.369 338.482 469.553 338.478C468.702 338.434 467.852 338.345 466.996 338.345C410.727 338.34 354.45 338.34 298.174 338.345C297.327 338.345 296.472 338.434 295.621 338.478C286.096 338.434 276.566 338.508 267.045 338.268C264.141 338.194 263.703 339.212 263.707 341.798C263.782 377.696 263.797 413.595 263.662 449.492C263.648 452.871 264.719 453.459 267.804 453.441C286.612 453.337 305.421 453.452 324.231 453.501C324.245 477.699 324.226 501.893 324.349 526.091C324.365 528.783 323.452 529.277 321.003 529.264C303.278 529.175 285.552 529.28 267.825 529.146C264.641 529.116 263.41 529.715 263.427 533.296C263.589 565.929 263.545 598.558 263.576 631.19C263.576 632.383 263.265 633.644 264.028 634.753C264.014 637.073 264.088 639.396 263.939 641.706C263.82 643.565 264.374 644.237 266.355 644.231C291.283 644.127 316.201 644.113 341.123 644.069C341.606 644.098 342.096 644.173 342.579 644.173C391.727 644.218 440.876 644.232 490.021 644.366C492.914 644.378 493.397 643.416 493.393 640.812C493.362 604.883 493.438 568.953 493.467 533.026C493.467 531.977 493.878 530.819 492.998 529.882C491.819 528.887 490.42 529.391 489.135 529.391C472.019 529.346 454.897 529.36 437.781 529.36C432.861 529.356 432.865 529.356 432.855 524.609C432.826 502.371 432.781 480.132 432.751 457.89C432.125 453.954 433.993 453.234 437.632 453.283" fill="#E6243D"/>
<path d="M229.977 596.29C230.007 593.118 228.938 592.468 226.004 592.494C210.844 592.628 195.687 592.48 180.526 592.628C177.527 592.658 176.597 591.918 176.615 588.819C176.749 565.971 176.733 543.119 176.615 520.268C176.604 517.291 177.268 516.339 180.399 516.375C195.801 516.541 211.207 516.404 226.609 516.493C229.127 516.509 229.977 515.828 229.955 513.228C229.851 499.296 229.821 485.366 229.97 471.433C230 468.435 228.984 467.791 226.199 467.808C210.915 467.927 195.636 467.804 180.358 467.927C177.59 467.942 176.59 467.358 176.609 464.333C176.742 441.239 176.727 418.141 176.619 395.047C176.609 392.36 177.272 391.501 180.071 391.527C195.226 391.661 210.387 391.602 225.548 391.572C226.84 391.568 228.237 392.031 229.442 391.124C229.591 390.669 229.854 390.213 229.854 389.752C229.885 373.641 229.85 357.527 229.929 341.413C229.939 339.344 229.039 339.028 227.28 339.041C219.952 339.101 212.623 339.056 205.299 339.071C180.386 339.115 155.479 339.16 130.566 339.19C109.779 339.19 88.9908 339.194 68.1996 339.194C46.8072 339.15 25.419 339.19 4.03092 339.001C0.811936 338.971 -0.0336361 339.742 0.00105432 343.012C0.311823 374.158 0.105134 405.309 0.307495 436.464C0.654399 488.026 0.397129 539.59 0.397129 591.162C0.397129 607.904 0.470823 624.641 0.337843 641.383C0.307489 644.338 1.21812 645.033 4.03383 644.986C13.8093 644.823 23.5891 644.941 33.3733 644.925C55.7414 644.897 78.1067 644.838 100.476 644.807C100.713 644.838 100.959 644.911 101.199 644.911C143.13 644.927 185.063 644.907 226.992 645C229.598 645.005 229.953 643.979 229.94 641.779C229.88 626.628 229.821 611.474 229.984 596.323" fill="#FFAD00"/>
</svg>
