<svg width="827" height="143" viewBox="0 0 827 143" fill="none" xmlns="http://www.w3.org/2000/svg">
<path d="M535.725 38.9488L545.176 24.6424L545.213 25.2676L536.534 12.1012H542.345L548.155 21.1117H548.928L554.702 12.1012H560.292L551.502 25.3779L551.429 24.7527L561.101 38.9488H555.327L548.56 28.8718H547.788L541.315 38.9488H535.725ZM564.922 38.9488V12.1012H570.144V38.9488H564.922ZM576.918 38.9488V12.1012H582.14V38.9488H576.918ZM609.392 39.6476C606.965 39.6476 604.856 39.2185 603.066 38.3604C601.301 37.5022 599.83 36.3867 598.653 35.0136C597.501 33.6161 596.63 32.1205 596.042 30.5268C595.478 28.9086 595.196 27.3516 595.196 25.856V25.0469C595.196 23.4042 595.49 21.7737 596.079 20.1555C596.667 18.5128 597.55 17.0294 598.727 15.7054C599.928 14.3814 601.411 13.3271 603.177 12.5425C604.942 11.7334 607.014 11.3289 609.392 11.3289C611.746 11.3289 613.805 11.7334 615.571 12.5425C617.336 13.3271 618.807 14.3814 619.984 15.7054C621.185 17.0294 622.08 18.5128 622.669 20.1555C623.257 21.7737 623.551 23.4042 623.551 25.0469V25.856C623.551 27.3516 623.257 28.9086 622.669 30.5268C622.105 32.1205 621.234 33.6161 620.058 35.0136C618.905 36.3867 617.434 37.5022 615.644 38.3604C613.879 39.2185 611.795 39.6476 609.392 39.6476ZM609.392 34.793C610.765 34.793 611.991 34.5478 613.07 34.0574C614.173 33.567 615.105 32.8928 615.865 32.0346C616.65 31.152 617.238 30.159 617.63 29.0557C618.047 27.9278 618.255 26.7387 618.255 25.4882C618.255 24.1397 618.047 22.9016 617.63 21.7737C617.238 20.6459 616.65 19.6651 615.865 18.8315C615.105 17.9979 614.173 17.3481 613.07 16.8823C611.966 16.4164 610.741 16.1835 609.392 16.1835C608.019 16.1835 606.781 16.4164 605.678 16.8823C604.574 17.3481 603.63 17.9979 602.846 18.8315C602.086 19.6651 601.497 20.6459 601.08 21.7737C600.688 22.9016 600.492 24.1397 600.492 25.4882C600.492 26.7387 600.688 27.9278 601.08 29.0557C601.497 30.159 602.086 31.152 602.846 32.0346C603.63 32.8928 604.574 33.567 605.678 34.0574C606.781 34.5478 608.019 34.793 609.392 34.793ZM628.451 38.9488V12.1012H633.564V38.9488H628.451ZM625.951 15.9261V12.1012H633.564V15.9261H625.951ZM640.356 38.9488V18.9786H645.468V38.9488H640.356ZM637.561 22.8035V18.9786H645.468V22.8035H637.561ZM642.232 16.5881C641.226 16.5881 640.478 16.3306 639.988 15.8157C639.522 15.2763 639.289 14.6143 639.289 13.8298C639.289 12.9961 639.522 12.3219 639.988 11.807C640.478 11.2921 641.226 11.0347 642.232 11.0347C643.237 11.0347 643.972 11.2921 644.438 11.807C644.904 12.3219 645.137 12.9961 645.137 13.8298C645.137 14.6143 644.904 15.2763 644.438 15.8157C643.972 16.3306 643.237 16.5881 642.232 16.5881ZM651.36 38.9488V18.9786H655.405V27.5478H655.037C655.037 25.5373 655.295 23.8578 655.81 22.5093C656.325 21.1362 657.085 20.1065 658.09 19.4199C659.12 18.7089 660.395 18.3534 661.915 18.3534H662.135C663.68 18.3534 664.955 18.7089 665.96 19.4199C666.99 20.1065 667.75 21.1362 668.24 22.5093C668.755 23.8578 669.013 25.5373 669.013 27.5478H667.726C667.726 25.5373 667.983 23.8578 668.498 22.5093C669.037 21.1362 669.81 20.1065 670.815 19.4199C671.845 18.7089 673.12 18.3534 674.64 18.3534H674.86C676.405 18.3534 677.692 18.7089 678.722 19.4199C679.752 20.1065 680.524 21.1362 681.039 22.5093C681.578 23.8578 681.848 25.5373 681.848 27.5478V38.9488H676.736V27.0697C676.736 25.8192 676.417 24.8262 675.78 24.0907C675.142 23.3306 674.235 22.9506 673.058 22.9506C671.881 22.9506 670.937 23.3429 670.226 24.1275C669.515 24.8875 669.16 25.9173 669.16 27.2168V38.9488H664.048V27.0697C664.048 25.8192 663.729 24.8262 663.092 24.0907C662.454 23.3306 661.547 22.9506 660.37 22.9506C659.193 22.9506 658.249 23.3429 657.538 24.1275C656.827 24.8875 656.472 25.9173 656.472 27.2168V38.9488H651.36ZM687.311 46.3043V18.9786H691.357V27.5846L690.731 27.5478C690.829 25.5128 691.246 23.8087 691.982 22.4357C692.742 21.0627 693.747 20.0452 694.998 19.3832C696.248 18.6967 697.646 18.3534 699.19 18.3534C700.612 18.3534 701.887 18.6108 703.015 19.1257C704.167 19.6406 705.148 20.3639 705.957 21.2956C706.791 22.2273 707.428 23.3184 707.87 24.5688C708.311 25.7947 708.532 27.1187 708.532 28.5408V29.3131C708.532 30.7597 708.311 32.1082 707.87 33.3586C707.453 34.5846 706.828 35.6756 705.994 36.6318C705.185 37.5635 704.204 38.2991 703.052 38.8385C701.899 39.3534 700.612 39.6108 699.19 39.6108C697.695 39.6108 696.322 39.3043 695.071 38.6914C693.845 38.0539 692.852 37.0854 692.092 35.786C691.332 34.462 690.903 32.7579 690.805 30.6739L692.423 33.138V46.3043H687.311ZM697.903 35.3078C699.006 35.3078 699.963 35.0381 700.772 34.4987C701.605 33.9593 702.255 33.2115 702.721 32.2553C703.187 31.2746 703.42 30.1712 703.42 28.9453C703.42 27.6704 703.187 26.567 702.721 25.6353C702.255 24.7037 701.605 23.9804 700.772 23.4655C699.963 22.9261 699.006 22.6564 697.903 22.6564C696.898 22.6564 695.966 22.877 695.108 23.3184C694.274 23.7597 693.588 24.4094 693.048 25.2676C692.533 26.1257 692.276 27.1555 692.276 28.3569V29.828C692.276 30.9804 692.546 31.9611 693.085 32.7702C693.625 33.5793 694.323 34.2045 695.181 34.6458C696.04 35.0872 696.947 35.3078 697.903 35.3078ZM713.983 38.9488V18.9786H719.095V38.9488H713.983ZM711.188 22.8035V18.9786H719.095V22.8035H711.188ZM712.99 16.441L716.263 8.90156H721.559L717.366 16.441H712.99ZM737.086 38.9488V33.0276H736.24V26.4445C736.24 25.2921 735.958 24.4339 735.395 23.87C734.831 23.3061 733.96 23.0241 732.783 23.0241C732.17 23.0241 731.435 23.0364 730.577 23.0609C729.719 23.0854 728.848 23.1222 727.965 23.1713C727.107 23.1958 726.335 23.2325 725.648 23.2816V18.9418C726.212 18.8928 726.85 18.8438 727.561 18.7947C728.272 18.7457 728.995 18.7212 729.731 18.7212C730.491 18.6967 731.202 18.6844 731.864 18.6844C733.923 18.6844 735.627 18.9541 736.976 19.4935C738.349 20.0329 739.379 20.8788 740.065 22.0311C740.776 23.1835 741.132 24.6914 741.132 26.5548V38.9488H737.086ZM730.65 39.4637C729.204 39.4637 727.929 39.2063 726.825 38.6914C725.747 38.1765 724.901 37.4409 724.288 36.4847C723.699 35.5285 723.405 34.3761 723.405 33.0276C723.405 31.5565 723.761 30.3551 724.472 29.4234C725.207 28.4917 726.225 27.793 727.524 27.3271C728.848 26.8613 730.393 26.6283 732.158 26.6283H736.792V29.6809H732.085C730.908 29.6809 730.001 29.9751 729.363 30.5635C728.75 31.1275 728.444 31.863 728.444 32.7702C728.444 33.6774 728.75 34.4129 729.363 34.9768C730.001 35.5408 730.908 35.8227 732.085 35.8227C732.796 35.8227 733.445 35.7001 734.034 35.455C734.647 35.1853 735.149 34.7439 735.542 34.131C735.958 33.4935 736.191 32.6353 736.24 31.5565L737.491 32.9909C737.368 34.3884 737.025 35.5653 736.461 36.5215C735.922 37.4777 735.162 38.2133 734.181 38.7282C733.225 39.2185 732.048 39.4637 730.65 39.4637ZM754.883 39.6108C753.485 39.6108 752.198 39.3534 751.021 38.8385C749.844 38.3236 748.827 37.6003 747.968 36.6686C747.11 35.7369 746.448 34.6581 745.982 33.4322C745.517 32.1818 745.284 30.8332 745.284 29.3867V28.6143C745.284 27.1923 745.504 25.856 745.946 24.6056C746.412 23.3551 747.049 22.2641 747.858 21.3324C748.692 20.4007 749.685 19.6774 750.837 19.1625C752.014 18.6231 753.313 18.3534 754.736 18.3534C756.305 18.3534 757.678 18.6967 758.855 19.3832C760.056 20.0452 761.012 21.0504 761.723 22.3989C762.434 23.7474 762.827 25.4392 762.9 27.4742L761.392 25.7089V12.1012H766.504V38.9488H762.459V30.4532H763.341C763.268 32.4882 762.851 34.1923 762.091 35.5653C761.331 36.9138 760.326 37.9313 759.075 38.6178C757.849 39.2798 756.452 39.6108 754.883 39.6108ZM756.023 35.3078C757.028 35.3078 757.947 35.0872 758.781 34.6458C759.615 34.18 760.277 33.518 760.767 32.6599C761.282 31.7772 761.539 30.7474 761.539 29.5705V28.0994C761.539 26.9226 761.282 25.9418 760.767 25.1572C760.252 24.3481 759.578 23.7352 758.744 23.3184C757.911 22.877 757.003 22.6564 756.023 22.6564C754.919 22.6564 753.939 22.9261 753.081 23.4655C752.247 23.9804 751.585 24.7159 751.095 25.6721C750.629 26.6283 750.396 27.7439 750.396 29.0189C750.396 30.2938 750.641 31.4094 751.131 32.3656C751.622 33.2973 752.284 34.0206 753.117 34.5355C753.975 35.0504 754.944 35.3078 756.023 35.3078ZM784.423 38.9488V33.0276H783.577V26.4445C783.577 25.2921 783.295 24.4339 782.731 23.87C782.167 23.3061 781.297 23.0241 780.12 23.0241C779.507 23.0241 778.772 23.0364 777.913 23.0609C777.055 23.0854 776.185 23.1222 775.302 23.1713C774.444 23.1958 773.672 23.2325 772.985 23.2816V18.9418C773.549 18.8928 774.187 18.8438 774.898 18.7947C775.609 18.7457 776.332 18.7212 777.068 18.7212C777.828 18.6967 778.539 18.6844 779.201 18.6844C781.26 18.6844 782.964 18.9541 784.313 19.4935C785.686 20.0329 786.715 20.8788 787.402 22.0311C788.113 23.1835 788.469 24.6914 788.469 26.5548V38.9488H784.423ZM777.987 39.4637C776.54 39.4637 775.265 39.2063 774.162 38.6914C773.083 38.1765 772.237 37.4409 771.624 36.4847C771.036 35.5285 770.742 34.3761 770.742 33.0276C770.742 31.5565 771.097 30.3551 771.808 29.4234C772.544 28.4917 773.561 27.793 774.861 27.3271C776.185 26.8613 777.73 26.6283 779.495 26.6283H784.129V29.6809H779.421C778.244 29.6809 777.337 29.9751 776.7 30.5635C776.087 31.1275 775.78 31.863 775.78 32.7702C775.78 33.6774 776.087 34.4129 776.7 34.9768C777.337 35.5408 778.244 35.8227 779.421 35.8227C780.132 35.8227 780.782 35.7001 781.37 35.455C781.983 35.1853 782.486 34.7439 782.878 34.131C783.295 33.4935 783.528 32.6353 783.577 31.5565L784.828 32.9909C784.705 34.3884 784.362 35.5653 783.798 36.5215C783.258 37.4777 782.498 38.2133 781.518 38.7282C780.561 39.2185 779.385 39.4637 777.987 39.4637ZM543.117 76.7107V72.187H548.339C549.394 72.187 550.276 71.9786 550.987 71.5618C551.723 71.145 552.275 70.5688 552.642 69.8332C553.035 69.0977 553.231 68.2518 553.231 67.2956C553.231 66.3394 553.035 65.4935 552.642 64.7579C552.275 64.0224 551.723 63.4585 550.987 63.0662C550.276 62.6494 549.394 62.441 548.339 62.441H543.117V57.9173H547.898C550.154 57.9173 552.066 58.2851 553.635 59.0206C555.229 59.7562 556.443 60.8105 557.276 62.1835C558.11 63.532 558.527 65.138 558.527 67.0014V67.5898C558.527 69.4532 558.11 71.0714 557.276 72.4445C556.443 73.793 555.229 74.8473 553.635 75.6073C552.066 76.3429 550.154 76.7107 547.898 76.7107H543.117ZM538.63 84.9488V57.9173H543.852V84.9488H538.63ZM571.082 85.6476C569.366 85.6476 567.858 85.3534 566.559 84.7649C565.284 84.1765 564.217 83.3919 563.359 82.4112C562.525 81.4059 561.888 80.2903 561.446 79.0644C561.03 77.8385 560.821 76.5881 560.821 75.3131V74.6143C560.821 73.2903 561.03 72.0154 561.446 70.7895C561.888 69.539 562.525 68.4357 563.359 67.4795C564.217 66.4987 565.271 65.7264 566.522 65.1625C567.772 64.5741 569.219 64.2798 570.862 64.2798C573.019 64.2798 574.821 64.7579 576.268 65.7142C577.739 66.6459 578.842 67.884 579.578 69.4287C580.313 70.9488 580.681 72.5916 580.681 74.3569V76.1958H562.991V73.0697H577.482L575.9 74.6143C575.9 73.3394 575.716 72.2483 575.348 71.3411C574.981 70.4339 574.417 69.7352 573.657 69.2448C572.921 68.7544 571.989 68.5093 570.862 68.5093C569.734 68.5093 568.777 68.7667 567.993 69.2816C567.208 69.7965 566.608 70.5443 566.191 71.525C565.799 72.4812 565.602 73.6336 565.602 74.9821C565.602 76.2325 565.799 77.3481 566.191 78.3289C566.583 79.2851 567.184 80.0451 567.993 80.6091C568.802 81.1485 569.832 81.4182 571.082 81.4182C572.333 81.4182 573.35 81.173 574.135 80.6826C574.919 80.1677 575.422 79.5425 575.643 78.807H580.35C580.056 80.18 579.492 81.3814 578.658 82.4112C577.825 83.4409 576.758 84.2378 575.459 84.8017C574.184 85.3656 572.725 85.6476 571.082 85.6476ZM584.952 84.9488V64.9786H588.997V73.4374H588.887C588.887 70.5688 589.5 68.3989 590.726 66.9278C591.952 65.4567 593.754 64.7212 596.132 64.7212H596.868V69.1713H595.47C593.754 69.1713 592.418 69.6371 591.461 70.5688C590.53 71.476 590.064 72.8 590.064 74.5408V84.9488H584.952ZM600.288 84.9488V64.9786H604.333V73.5478H603.965C603.965 71.5128 604.235 69.821 604.774 68.4725C605.314 67.0995 606.111 66.0697 607.165 65.3832C608.244 64.6967 609.58 64.3534 611.174 64.3534H611.394C613.773 64.3534 615.575 65.1257 616.801 66.6704C618.027 68.1905 618.64 70.4707 618.64 73.511V84.9488H613.528V73.0697C613.528 71.8438 613.172 70.8508 612.461 70.0907C611.774 69.3306 610.818 68.9506 609.592 68.9506C608.342 68.9506 607.324 69.3429 606.54 70.1275C605.78 70.8875 605.4 71.9173 605.4 73.2168V84.9488H600.288ZM636.235 84.9488V79.0276H635.389V72.4445C635.389 71.2921 635.108 70.4339 634.544 69.87C633.98 69.3061 633.109 69.0241 631.932 69.0241C631.319 69.0241 630.584 69.0364 629.726 69.0609C628.868 69.0854 627.997 69.1222 627.115 69.1713C626.256 69.1958 625.484 69.2325 624.798 69.2816V64.9418C625.361 64.8928 625.999 64.8438 626.71 64.7947C627.421 64.7457 628.144 64.7212 628.88 64.7212C629.64 64.6967 630.351 64.6844 631.013 64.6844C633.072 64.6844 634.777 64.9541 636.125 65.4935C637.498 66.0329 638.528 66.8788 639.214 68.0311C639.925 69.1835 640.281 70.6914 640.281 72.5548V84.9488H636.235ZM629.799 85.4637C628.353 85.4637 627.078 85.2063 625.974 84.6914C624.896 84.1765 624.05 83.4409 623.437 82.4847C622.848 81.5285 622.554 80.3761 622.554 79.0276C622.554 77.5565 622.91 76.3551 623.621 75.4234C624.356 74.4917 625.374 73.793 626.673 73.3271C627.997 72.8613 629.542 72.6283 631.307 72.6283H635.941V75.6809H631.234C630.057 75.6809 629.15 75.9751 628.512 76.5635C627.899 77.1275 627.593 77.863 627.593 78.7702C627.593 79.6774 627.899 80.4129 628.512 80.9768C629.15 81.5408 630.057 81.8227 631.234 81.8227C631.945 81.8227 632.594 81.7001 633.183 81.455C633.796 81.1853 634.298 80.7439 634.691 80.131C635.108 79.4935 635.34 78.6353 635.389 77.5565L636.64 78.9909C636.517 80.3884 636.174 81.5653 635.61 82.5215C635.071 83.4777 634.311 84.2133 633.33 84.7282C632.374 85.2185 631.197 85.4637 629.799 85.4637ZM645.757 84.9488V64.9786H649.802V73.5478H649.434C649.434 71.5373 649.692 69.8578 650.207 68.5093C650.722 67.1362 651.482 66.1065 652.487 65.4199C653.517 64.7089 654.792 64.3534 656.312 64.3534H656.533C658.077 64.3534 659.352 64.7089 660.357 65.4199C661.387 66.1065 662.147 67.1362 662.638 68.5093C663.153 69.8578 663.41 71.5373 663.41 73.5478H662.123C662.123 71.5373 662.38 69.8578 662.895 68.5093C663.434 67.1362 664.207 66.1065 665.212 65.4199C666.242 64.7089 667.517 64.3534 669.037 64.3534H669.258C670.802 64.3534 672.089 64.7089 673.119 65.4199C674.149 66.1065 674.921 67.1362 675.436 68.5093C675.976 69.8578 676.245 71.5373 676.245 73.5478V84.9488H671.133V73.0697C671.133 71.8192 670.815 70.8262 670.177 70.0907C669.54 69.3306 668.632 68.9506 667.455 68.9506C666.279 68.9506 665.335 69.3429 664.624 70.1275C663.913 70.8875 663.557 71.9173 663.557 73.2168V84.9488H658.445V73.0697C658.445 71.8192 658.126 70.8262 657.489 70.0907C656.851 69.3306 655.944 68.9506 654.767 68.9506C653.59 68.9506 652.646 69.3429 651.935 70.1275C651.224 70.8875 650.869 71.9173 650.869 73.2168V84.9488H645.757ZM693.44 85.6108C691.798 85.6108 690.351 85.2676 689.101 84.581C687.85 83.87 686.869 82.8402 686.158 81.4917C685.447 80.1432 685.055 78.5128 684.981 76.6003H685.754V84.9488H681.708V58.1012H686.82V71.525L685.46 73.6213C685.558 71.5618 685.962 69.8455 686.673 68.4725C687.409 67.0995 688.389 66.0697 689.615 65.3832C690.841 64.6967 692.227 64.3534 693.771 64.3534C695.144 64.3534 696.395 64.6108 697.523 65.1257C698.65 65.6406 699.619 66.3639 700.428 67.2956C701.237 68.2028 701.85 69.2693 702.267 70.4952C702.708 71.7212 702.929 73.0574 702.929 74.504V75.2763C702.929 76.7229 702.708 78.0714 702.267 79.3219C701.826 80.5723 701.188 81.6756 700.354 82.6318C699.521 83.5635 698.516 84.2991 697.339 84.8385C696.186 85.3534 694.887 85.6108 693.44 85.6108ZM692.3 81.3078C693.403 81.3078 694.36 81.0381 695.169 80.4987C696.002 79.9348 696.652 79.1747 697.118 78.2185C697.584 77.2623 697.817 76.159 697.817 74.9086C697.817 73.6336 697.584 72.5303 697.118 71.5986C696.652 70.6669 696.002 69.9436 695.169 69.4287C694.36 68.9138 693.403 68.6564 692.3 68.6564C691.295 68.6564 690.363 68.877 689.505 69.3184C688.671 69.7597 687.985 70.4094 687.446 71.2676C686.931 72.1257 686.673 73.1555 686.673 74.3569V75.828C686.673 76.9804 686.943 77.9611 687.482 78.7702C688.022 79.5793 688.72 80.2045 689.579 80.6458C690.437 81.0872 691.344 81.3078 692.3 81.3078ZM714.228 85.574C711.923 85.574 710.133 84.814 708.858 83.2938C707.608 81.7737 706.982 79.518 706.982 76.5268V64.9418H712.095V76.9681C712.095 78.194 712.438 79.1747 713.124 79.9103C713.811 80.6213 714.743 80.9768 715.919 80.9768C717.096 80.9768 718.052 80.5968 718.788 79.8367C719.548 79.0767 719.928 78.0469 719.928 76.7474V64.9418H725.04V84.9488H720.995V76.4532H721.399C721.399 78.4637 721.142 80.1432 720.627 81.4917C720.112 82.8402 719.34 83.8578 718.31 84.5443C717.28 85.2308 715.993 85.574 714.448 85.574H714.228ZM739.776 85.6476C738.035 85.6476 736.527 85.3534 735.252 84.7649C734.002 84.1765 732.948 83.3919 732.089 82.4112C731.256 81.4304 730.631 80.3271 730.214 79.1012C729.797 77.8753 729.589 76.6248 729.589 75.3499V74.6511C729.589 73.3026 729.797 72.0154 730.214 70.7895C730.655 69.539 731.305 68.4357 732.163 67.4795C733.021 66.4987 734.075 65.7264 735.326 65.1625C736.601 64.5741 738.072 64.2798 739.739 64.2798C741.48 64.2798 743.037 64.6231 744.41 65.3096C745.783 65.9716 746.874 66.9033 747.683 68.1047C748.517 69.3061 748.983 70.7037 749.081 72.2973H744.116C743.993 71.2676 743.552 70.4094 742.792 69.7229C742.056 69.0364 741.039 68.6931 739.739 68.6931C738.611 68.6931 737.667 68.9628 736.907 69.5023C736.172 70.0417 735.62 70.7895 735.252 71.7457C734.885 72.6774 734.701 73.7562 734.701 74.9821C734.701 76.159 734.872 77.2255 735.216 78.1818C735.583 79.138 736.135 79.8858 736.871 80.4252C737.631 80.9646 738.599 81.2343 739.776 81.2343C740.659 81.2343 741.419 81.0749 742.056 80.7562C742.694 80.4374 743.196 79.9961 743.564 79.4322C743.956 78.8683 744.202 78.2308 744.3 77.5198H749.265C749.166 79.138 748.688 80.56 747.83 81.786C746.997 82.9874 745.881 83.9313 744.483 84.6178C743.11 85.3043 741.541 85.6476 739.776 85.6476ZM765.46 84.9488V79.0276H764.614V72.4445C764.614 71.2921 764.332 70.4339 763.768 69.87C763.204 69.3061 762.334 69.0241 761.157 69.0241C760.544 69.0241 759.808 69.0364 758.95 69.0609C758.092 69.0854 757.221 69.1222 756.339 69.1713C755.481 69.1958 754.708 69.2325 754.022 69.2816V64.9418C754.586 64.8928 755.223 64.8438 755.934 64.7947C756.645 64.7457 757.369 64.7212 758.104 64.7212C758.864 64.6967 759.575 64.6844 760.237 64.6844C762.297 64.6844 764.001 64.9541 765.349 65.4935C766.722 66.0329 767.752 66.8788 768.439 68.0311C769.15 69.1835 769.505 70.6914 769.505 72.5548V84.9488H765.46ZM759.024 85.4637C757.577 85.4637 756.302 85.2063 755.199 84.6914C754.12 84.1765 753.274 83.4409 752.661 82.4847C752.073 81.5285 751.778 80.3761 751.778 79.0276C751.778 77.5565 752.134 76.3551 752.845 75.4234C753.58 74.4917 754.598 73.793 755.897 73.3271C757.221 72.8613 758.766 72.6283 760.531 72.6283H765.165V75.6809H760.458C759.281 75.6809 758.374 75.9751 757.736 76.5635C757.123 77.1275 756.817 77.863 756.817 78.7702C756.817 79.6774 757.123 80.4129 757.736 80.9768C758.374 81.5408 759.281 81.8227 760.458 81.8227C761.169 81.8227 761.819 81.7001 762.407 81.455C763.02 81.1853 763.523 80.7439 763.915 80.131C764.332 79.4935 764.565 78.6353 764.614 77.5565L765.864 78.9909C765.742 80.3884 765.398 81.5653 764.834 82.5215C764.295 83.4777 763.535 84.2133 762.554 84.7282C761.598 85.2185 760.421 85.4637 759.024 85.4637ZM774.981 84.9488V64.9786H779.027V73.5478H778.659C778.659 71.5128 778.928 69.821 779.468 68.4725C780.007 67.0995 780.804 66.0697 781.858 65.3832C782.937 64.6967 784.273 64.3534 785.867 64.3534H786.088C788.466 64.3534 790.268 65.1257 791.494 66.6704C792.72 68.1905 793.333 70.4707 793.333 73.511V84.9488H788.221V73.0697C788.221 71.8438 787.865 70.8508 787.154 70.0907C786.468 69.3306 785.512 68.9506 784.286 68.9506C783.035 68.9506 782.018 69.3429 781.233 70.1275C780.473 70.8875 780.093 71.9173 780.093 73.2168V84.9488H774.981ZM810.929 84.9488V79.0276H810.083V72.4445C810.083 71.2921 809.801 70.4339 809.237 69.87C808.673 69.3061 807.803 69.0241 806.626 69.0241C806.013 69.0241 805.277 69.0364 804.419 69.0609C803.561 69.0854 802.691 69.1222 801.808 69.1713C800.95 69.1958 800.177 69.2325 799.491 69.2816V64.9418C800.055 64.8928 800.692 64.8438 801.403 64.7947C802.114 64.7457 802.838 64.7212 803.573 64.7212C804.333 64.6967 805.044 64.6844 805.706 64.6844C807.766 64.6844 809.47 64.9541 810.818 65.4935C812.191 66.0329 813.221 66.8788 813.908 68.0311C814.619 69.1835 814.974 70.6914 814.974 72.5548V84.9488H810.929ZM804.493 85.4637C803.046 85.4637 801.771 85.2063 800.668 84.6914C799.589 84.1765 798.743 83.4409 798.13 82.4847C797.542 81.5285 797.247 80.3761 797.247 79.0276C797.247 77.5565 797.603 76.3551 798.314 75.4234C799.05 74.4917 800.067 73.793 801.367 73.3271C802.691 72.8613 804.235 72.6283 806.001 72.6283H810.635V75.6809H805.927C804.75 75.6809 803.843 75.9751 803.205 76.5635C802.592 77.1275 802.286 77.863 802.286 78.7702C802.286 79.6774 802.592 80.4129 803.205 80.9768C803.843 81.5408 804.75 81.8227 805.927 81.8227C806.638 81.8227 807.288 81.7001 807.876 81.455C808.489 81.1853 808.992 80.7439 809.384 80.131C809.801 79.4935 810.034 78.6353 810.083 77.5565L811.333 78.9909C811.211 80.3884 810.867 81.5653 810.304 82.5215C809.764 83.4777 809.004 84.2133 808.023 84.7282C807.067 85.2185 805.89 85.4637 804.493 85.4637ZM546.5 131.611C545.103 131.611 543.816 131.353 542.639 130.838C541.462 130.324 540.444 129.6 539.586 128.669C538.728 127.737 538.066 126.658 537.6 125.432C537.134 124.182 536.902 122.833 536.902 121.387V120.614C536.902 119.192 537.122 117.856 537.563 116.606C538.029 115.355 538.667 114.264 539.476 113.332C540.31 112.401 541.303 111.677 542.455 111.162C543.632 110.623 544.931 110.353 546.353 110.353C547.923 110.353 549.296 110.697 550.472 111.383C551.674 112.045 552.63 113.05 553.341 114.399C554.052 115.747 554.444 117.439 554.518 119.474L553.01 117.709V104.101H558.122V130.949H554.077V122.453H554.959C554.886 124.488 554.469 126.192 553.709 127.565C552.949 128.914 551.944 129.931 550.693 130.618C549.467 131.28 548.07 131.611 546.5 131.611ZM547.641 127.308C548.646 127.308 549.565 127.087 550.399 126.646C551.232 126.18 551.894 125.518 552.385 124.66C552.9 123.777 553.157 122.747 553.157 121.571V120.099C553.157 118.923 552.9 117.942 552.385 117.157C551.87 116.348 551.196 115.735 550.362 115.318C549.528 114.877 548.621 114.656 547.641 114.656C546.537 114.656 545.556 114.926 544.698 115.465C543.865 115.98 543.203 116.716 542.712 117.672C542.247 118.628 542.014 119.744 542.014 121.019C542.014 122.294 542.259 123.409 542.749 124.366C543.24 125.297 543.901 126.021 544.735 126.536C545.593 127.05 546.562 127.308 547.641 127.308ZM572.878 131.648C571.162 131.648 569.654 131.353 568.354 130.765C567.079 130.176 566.013 129.392 565.155 128.411C564.321 127.406 563.684 126.29 563.242 125.064C562.825 123.838 562.617 122.588 562.617 121.313V120.614C562.617 119.29 562.825 118.015 563.242 116.789C563.684 115.539 564.321 114.436 565.155 113.479C566.013 112.499 567.067 111.726 568.318 111.162C569.568 110.574 571.015 110.28 572.657 110.28C574.815 110.28 576.617 110.758 578.064 111.714C579.535 112.646 580.638 113.884 581.374 115.429C582.109 116.949 582.477 118.592 582.477 120.357V122.196H564.787V119.07H579.277L577.696 120.614C577.696 119.339 577.512 118.248 577.144 117.341C576.776 116.434 576.212 115.735 575.452 115.245C574.717 114.754 573.785 114.509 572.657 114.509C571.529 114.509 570.573 114.767 569.789 115.282C569.004 115.796 568.403 116.544 567.987 117.525C567.594 118.481 567.398 119.634 567.398 120.982C567.398 122.233 567.594 123.348 567.987 124.329C568.379 125.285 568.98 126.045 569.789 126.609C570.598 127.148 571.628 127.418 572.878 127.418C574.128 127.418 575.146 127.173 575.931 126.683C576.715 126.168 577.218 125.543 577.438 124.807H582.146C581.852 126.18 581.288 127.381 580.454 128.411C579.621 129.441 578.554 130.238 577.255 130.802C575.98 131.366 574.521 131.648 572.878 131.648ZM595.163 130.949V104.101H600.385V130.949H595.163ZM606.681 130.949V110.979H610.726V119.548H610.358C610.358 117.513 610.628 115.821 611.167 114.472C611.707 113.099 612.504 112.07 613.558 111.383C614.637 110.697 615.973 110.353 617.567 110.353H617.787C620.166 110.353 621.968 111.126 623.194 112.67C624.42 114.191 625.033 116.471 625.033 119.511V130.949H619.92V119.07C619.92 117.844 619.565 116.851 618.854 116.091C618.167 115.331 617.211 114.951 615.985 114.951C614.735 114.951 613.717 115.343 612.933 116.127C612.173 116.888 611.793 117.917 611.793 119.217V130.949H606.681ZM631.007 130.949V110.501C631.007 108.22 631.632 106.541 632.882 105.462C634.157 104.359 636.033 103.807 638.509 103.807H641.01V107.742H638.141C637.381 107.742 636.793 107.951 636.376 108.367C635.984 108.76 635.788 109.324 635.788 110.059V130.949H631.007ZM628.506 115.061V111.31H641.341V115.061H628.506ZM654.027 131.648C652.261 131.648 650.705 131.366 649.356 130.802C648.008 130.238 646.867 129.478 645.936 128.522C645.004 127.541 644.293 126.437 643.803 125.212C643.337 123.986 643.104 122.711 643.104 121.387V120.614C643.104 119.241 643.349 117.942 643.839 116.716C644.354 115.465 645.078 114.362 646.009 113.406C646.966 112.425 648.118 111.665 649.466 111.126C650.815 110.562 652.335 110.28 654.027 110.28C655.719 110.28 657.239 110.562 658.587 111.126C659.936 111.665 661.076 112.425 662.008 113.406C662.964 114.362 663.687 115.465 664.177 116.716C664.668 117.942 664.913 119.241 664.913 120.614V121.387C664.913 122.711 664.668 123.986 664.177 125.212C663.712 126.437 663.013 127.541 662.081 128.522C661.149 129.478 660.009 130.238 658.661 130.802C657.312 131.366 655.768 131.648 654.027 131.648ZM654.027 127.271C655.277 127.271 656.332 127.001 657.19 126.462C658.048 125.898 658.698 125.15 659.139 124.219C659.58 123.262 659.801 122.184 659.801 120.982C659.801 119.756 659.568 118.677 659.102 117.746C658.661 116.789 657.999 116.042 657.116 115.502C656.258 114.938 655.228 114.656 654.027 114.656C652.825 114.656 651.783 114.938 650.901 115.502C650.043 116.042 649.381 116.789 648.915 117.746C648.449 118.677 648.216 119.756 648.216 120.982C648.216 122.184 648.437 123.262 648.878 124.219C649.344 125.15 650.006 125.898 650.864 126.462C651.722 127.001 652.776 127.271 654.027 127.271ZM669.389 130.949V110.979H673.435V119.437H673.324C673.324 116.569 673.937 114.399 675.163 112.928C676.389 111.457 678.191 110.721 680.57 110.721H681.305V115.171H679.908C678.191 115.171 676.855 115.637 675.899 116.569C674.967 117.476 674.501 118.8 674.501 120.541V130.949H669.389ZM684.725 130.949V110.979H688.771V119.548H688.403C688.403 117.537 688.66 115.858 689.175 114.509C689.69 113.136 690.45 112.106 691.455 111.42C692.485 110.709 693.76 110.353 695.28 110.353H695.501C697.046 110.353 698.321 110.709 699.326 111.42C700.356 112.106 701.116 113.136 701.606 114.509C702.121 115.858 702.378 117.537 702.378 119.548H701.091C701.091 117.537 701.349 115.858 701.863 114.509C702.403 113.136 703.175 112.106 704.18 111.42C705.21 110.709 706.485 110.353 708.005 110.353H708.226C709.771 110.353 711.058 110.709 712.088 111.42C713.117 112.106 713.89 113.136 714.405 114.509C714.944 115.858 715.214 117.537 715.214 119.548V130.949H710.102V119.07C710.102 117.819 709.783 116.826 709.145 116.091C708.508 115.331 707.601 114.951 706.424 114.951C705.247 114.951 704.303 115.343 703.592 116.127C702.881 116.888 702.525 117.917 702.525 119.217V130.949H697.413V119.07C697.413 117.819 697.095 116.826 696.457 116.091C695.82 115.331 694.913 114.951 693.736 114.951C692.559 114.951 691.615 115.343 690.904 116.127C690.193 116.888 689.837 117.917 689.837 119.217V130.949H684.725ZM732.776 130.949V125.028H731.931V118.444C731.931 117.292 731.649 116.434 731.085 115.87C730.521 115.306 729.65 115.024 728.473 115.024C727.861 115.024 727.125 115.036 726.267 115.061C725.409 115.085 724.538 115.122 723.656 115.171C722.797 115.196 722.025 115.233 721.339 115.282V110.942C721.903 110.893 722.54 110.844 723.251 110.795C723.962 110.746 724.685 110.721 725.421 110.721C726.181 110.697 726.892 110.684 727.554 110.684C729.614 110.684 731.318 110.954 732.666 111.493C734.039 112.033 735.069 112.879 735.755 114.031C736.466 115.184 736.822 116.691 736.822 118.555V130.949H732.776ZM726.34 131.464C724.894 131.464 723.619 131.206 722.515 130.691C721.437 130.176 720.591 129.441 719.978 128.485C719.389 127.529 719.095 126.376 719.095 125.028C719.095 123.557 719.451 122.355 720.162 121.423C720.897 120.492 721.915 119.793 723.214 119.327C724.538 118.861 726.083 118.628 727.848 118.628H732.482V121.681H727.775C726.598 121.681 725.691 121.975 725.053 122.564C724.44 123.127 724.134 123.863 724.134 124.77C724.134 125.677 724.44 126.413 725.053 126.977C725.691 127.541 726.598 127.823 727.775 127.823C728.486 127.823 729.135 127.7 729.724 127.455C730.337 127.185 730.839 126.744 731.232 126.131C731.649 125.493 731.882 124.635 731.931 123.557L733.181 124.991C733.058 126.388 732.715 127.565 732.151 128.522C731.612 129.478 730.852 130.213 729.871 130.728C728.915 131.219 727.738 131.464 726.34 131.464ZM725.789 108.441L729.062 100.902H734.358L730.165 108.441H725.789ZM750.977 131.206C749.138 131.206 747.618 130.973 746.417 130.507C745.24 130.017 744.357 129.208 743.769 128.08C743.18 126.928 742.886 125.383 742.886 123.446L742.923 105.352H747.704L747.667 123.777C747.667 124.758 747.925 125.518 748.44 126.057C748.979 126.572 749.739 126.83 750.72 126.83H753.846V131.206H750.977ZM739.723 114.73V110.979H753.846V114.73H739.723ZM759.093 130.949V110.979H764.205V130.949H759.093ZM756.298 114.803V110.979H764.205V114.803H756.298ZM760.968 108.588C759.963 108.588 759.215 108.331 758.725 107.816C758.259 107.276 758.026 106.614 758.026 105.83C758.026 104.996 758.259 104.322 758.725 103.807C759.215 103.292 759.963 103.035 760.968 103.035C761.974 103.035 762.709 103.292 763.175 103.807C763.641 104.322 763.874 104.996 763.874 105.83C763.874 106.614 763.641 107.276 763.175 107.816C762.709 108.331 761.974 108.588 760.968 108.588ZM778.96 131.648C777.219 131.648 775.711 131.353 774.436 130.765C773.186 130.176 772.131 129.392 771.273 128.411C770.44 127.43 769.814 126.327 769.398 125.101C768.981 123.875 768.772 122.625 768.772 121.35V120.651C768.772 119.303 768.981 118.015 769.398 116.789C769.839 115.539 770.489 114.436 771.347 113.479C772.205 112.499 773.259 111.726 774.51 111.162C775.785 110.574 777.256 110.28 778.923 110.28C780.664 110.28 782.221 110.623 783.594 111.31C784.967 111.972 786.058 112.903 786.867 114.105C787.701 115.306 788.166 116.704 788.265 118.297H783.3C783.177 117.268 782.736 116.409 781.976 115.723C781.24 115.036 780.223 114.693 778.923 114.693C777.795 114.693 776.851 114.963 776.091 115.502C775.356 116.042 774.804 116.789 774.436 117.746C774.068 118.677 773.885 119.756 773.885 120.982C773.885 122.159 774.056 123.226 774.399 124.182C774.767 125.138 775.319 125.886 776.054 126.425C776.814 126.965 777.783 127.234 778.96 127.234C779.843 127.234 780.603 127.075 781.24 126.756C781.878 126.437 782.38 125.996 782.748 125.432C783.14 124.868 783.385 124.231 783.483 123.52H788.448C788.35 125.138 787.872 126.56 787.014 127.786C786.18 128.987 785.065 129.931 783.667 130.618C782.294 131.304 780.725 131.648 778.96 131.648ZM804.644 130.949V125.028H803.798V118.444C803.798 117.292 803.516 116.434 802.952 115.87C802.388 115.306 801.517 115.024 800.341 115.024C799.728 115.024 798.992 115.036 798.134 115.061C797.276 115.085 796.405 115.122 795.523 115.171C794.665 115.196 793.892 115.233 793.206 115.282V110.942C793.77 110.893 794.407 110.844 795.118 110.795C795.829 110.746 796.552 110.721 797.288 110.721C798.048 110.697 798.759 110.684 799.421 110.684C801.481 110.684 803.185 110.954 804.533 111.493C805.906 112.033 806.936 112.879 807.622 114.031C808.334 115.184 808.689 116.691 808.689 118.555V130.949H804.644ZM798.207 131.464C796.761 131.464 795.486 131.206 794.383 130.691C793.304 130.176 792.458 129.441 791.845 128.485C791.256 127.529 790.962 126.376 790.962 125.028C790.962 123.557 791.318 122.355 792.029 121.423C792.764 120.492 793.782 119.793 795.081 119.327C796.405 118.861 797.95 118.628 799.715 118.628H804.349V121.681H799.642C798.465 121.681 797.558 121.975 796.92 122.564C796.307 123.127 796.001 123.863 796.001 124.77C796.001 125.677 796.307 126.413 796.92 126.977C797.558 127.541 798.465 127.823 799.642 127.823C800.353 127.823 801.003 127.7 801.591 127.455C802.204 127.185 802.707 126.744 803.099 126.131C803.516 125.493 803.749 124.635 803.798 123.557L805.048 124.991C804.925 126.388 804.582 127.565 804.018 128.522C803.479 129.478 802.719 130.213 801.738 130.728C800.782 131.219 799.605 131.464 798.207 131.464Z" fill="#545454"/>
<path d="M61.7916 98.8949C56.2223 98.9016 50.6531 98.8876 45.0831 98.9083C44.2552 98.913 43.3762 98.7658 42.6502 99.3157C42.6453 99.3083 42.6433 99.2876 42.6363 99.2809C40.3033 97.6361 39.6609 95.317 39.8975 92.6046C39.9895 91.5398 39.9252 90.4608 39.9114 89.3899C39.836 84.9351 40.0809 80.4762 39.773 76.0254C39.7384 75.8622 39.6851 75.705 39.6443 75.5465C39.9744 74.9786 39.928 74.3164 39.9217 73.6836C39.8526 64.9465 40.0055 56.2159 40.2663 47.4833C40.3645 44.2032 41.3839 43.1058 44.7059 43.0915C50.5038 43.0638 56.2998 43.0777 62.0953 43.0866C62.552 43.0866 63.0069 43.0935 63.4576 43.1619C65.2664 43.4369 66.2984 44.4813 66.4514 46.3219C66.6513 48.694 66.861 51.0619 66.8534 53.4525C66.8049 67.0655 66.9509 80.6809 66.5109 94.2902C66.3926 97.9223 65.5034 98.8896 61.7939 98.8956L61.7916 98.8949ZM106.657 13.5108V13.5089C106.239 8.84019 104.075 5.21967 100.131 2.67055C98.0384 0.935832 95.5239 0.0826504 92.92 0.0622713C80.3145 -0.0413512 67.7117 0.0140422 55.1083 0.0209503C46.231 0.0229537 37.3563 0.0257992 28.479 0.0257992C23.9925 0.0237959 19.5041 0.0188421 15.0177 0.0188421C6.64619 0.0237469 0.00652058 6.65447 0.00444482 15.0352C-0.00247439 52.3159 -0.000398625 89.5953 0.00444482 126.871C0.00444482 135.419 6.42628 141.975 15.0323 142.052C24.4091 142.138 33.7881 142.073 43.1643 142.066C44.9814 142.066 46.7964 142.018 48.6135 141.993C53.6159 141.993 58.6165 141.995 63.6205 141.998C72.9955 142.003 82.3719 142.012 91.7471 142.012C100.162 142.014 106.734 135.447 106.749 127.018C106.783 106.59 106.826 86.1625 106.846 65.7322C106.86 48.9328 106.851 32.135 106.84 15.3371C106.84 14.7264 106.992 14.0888 106.656 13.5065" fill="#15A6D5"/>
<path d="M207.173 67.0337C207.169 69.3916 205.601 70.9307 203.193 70.9922C200.686 71.0544 198.18 70.9641 195.678 71.0631C194.47 71.1113 194.159 70.7294 194.169 69.5461C194.224 62.9066 194.196 56.2646 194.196 49.6252C194.196 42.9835 194.224 36.3435 194.169 29.704C194.162 28.5414 194.412 28.1281 195.651 28.179C198.152 28.2785 200.662 28.1811 203.166 28.2135C205.552 28.2481 207.173 29.7974 207.177 32.1308C207.198 43.7649 207.198 55.399 207.175 67.031L207.173 67.0337ZM140.576 0.0341555C140.527 0.130179 140.527 0.211034 140.534 0.288406H140.471C140.5 0.200672 140.534 0.117053 140.576 0.0341555ZM229.1 14.3761C229.086 6.81645 222.164 0.0500837 214.559 0.0487021C189.898 0.0348858 165.236 0.0416961 140.572 0.0347879C134.891 0.0278797 129.207 0.0327508 123.523 0.000213221C122.581 -0.00669493 122.073 0.148733 122.077 1.27884C122.132 11.4186 122.132 21.5586 122.147 31.6978C122.119 32.3776 122.063 33.0578 122.063 33.7358C122.083 51.5044 122.125 69.2738 122.125 87.0404C122.125 104.75 122.077 122.462 122.077 140.173C122.077 140.78 121.702 141.524 122.438 142.012C122.778 142.026 123.119 142.047 123.459 142.047C149.49 142.047 175.517 142.047 201.543 142.045C201.714 142.045 201.887 142.024 202.054 142.05C202.831 142.145 203.16 141.891 203.15 141.036C203.087 134.794 203.072 128.551 203.044 122.31C203.051 120.373 203.071 118.435 203.085 116.499C203.1 111.333 203.159 106.167 203.113 101.004C203.099 99.7949 203.462 99.4711 204.649 99.4919C208.293 99.5467 211.944 99.6136 215.58 99.443C222.658 99.1032 229.1 92.4129 229.111 85.4023C229.145 61.7266 229.145 38.0536 229.104 14.3792" fill="#42AF65"/>
<path d="M351.186 119.502C351.2 118.029 350.702 117.727 349.338 117.739C342.289 117.801 335.24 117.732 328.19 117.801C326.795 117.815 326.363 117.471 326.371 116.032C326.434 105.42 326.426 94.8058 326.371 84.1924C326.367 82.8098 326.675 82.3677 328.131 82.3844C335.293 82.4613 342.457 82.3978 349.62 82.4393C350.791 82.4466 351.186 82.1302 351.176 80.9229C351.127 74.452 351.113 67.9818 351.182 61.5106C351.197 60.118 350.724 59.8186 349.429 59.8268C342.321 59.882 335.217 59.8246 328.112 59.882C326.825 59.8889 326.36 59.6175 326.369 58.2125C326.431 47.4862 326.424 36.7583 326.373 26.0319C326.369 24.7838 326.677 24.3848 327.978 24.397C335.026 24.4592 342.076 24.4317 349.126 24.4179C349.727 24.4159 350.377 24.6312 350.937 24.2098C351.006 23.9984 351.129 23.7864 351.129 23.5723C351.143 16.0893 351.127 8.60504 351.164 1.12069C351.168 0.159617 350.75 0.0129949 349.932 0.0191434C346.524 0.0467762 343.116 0.0259387 339.71 0.0328471C328.125 0.0535715 316.543 0.0744765 304.958 0.0882925C295.292 0.0882925 285.625 0.0901902 275.957 0.0901902C266.009 0.0694658 256.063 0.0881835 246.117 0.000380246C244.621 -0.0134358 244.227 0.344435 244.244 1.86341C244.388 16.3298 244.292 30.7984 244.386 45.2683C244.547 69.2172 244.428 93.167 244.428 117.12C244.428 124.896 244.462 132.67 244.4 140.446C244.386 141.818 244.809 142.142 246.119 142.119C250.665 142.044 255.212 142.099 259.762 142.091C270.164 142.078 280.564 142.051 290.966 142.037C291.076 142.051 291.19 142.085 291.302 142.085C310.8 142.092 330.3 142.083 349.798 142.126C351.01 142.128 351.174 141.652 351.168 140.63C351.141 133.593 351.113 126.554 351.189 119.518" fill="#FFAD00"/>
<path d="M447.294 53.4289C455.364 53.5304 463.433 53.4564 471.505 53.5345C472.963 53.5483 473.42 53.2395 473.414 51.6877C473.351 35.0044 473.379 18.3206 473.359 1.63731C473.359 1.13232 473.687 0.505129 473.053 0.106112C469.419 0.10404 465.783 0.101158 462.149 0.0991549C461.753 0.0784306 461.357 0.0371737 460.96 0.0371737C434.793 0.0351704 408.624 0.0351704 382.455 0.0371737C382.061 0.0371737 381.663 0.0784306 381.268 0.0991549C376.838 0.0784306 372.407 0.112978 367.979 0.00175573C366.629 -0.0327854 366.425 0.439833 366.427 1.64089C366.462 18.3145 366.469 34.988 366.406 51.6609C366.4 53.2307 366.898 53.5037 368.332 53.4955C377.078 53.4471 385.825 53.5004 394.571 53.5231C394.578 64.762 394.569 75.9993 394.627 87.2387C394.634 88.4889 394.209 88.7183 393.071 88.7123C384.828 88.6708 376.585 88.7197 368.342 88.6575C366.861 88.6434 366.289 88.9217 366.297 90.5852C366.372 105.742 366.352 120.897 366.366 136.053C366.366 136.607 366.221 137.193 366.576 137.708C366.57 138.786 366.604 139.865 366.535 140.938C366.48 141.801 366.737 142.113 367.659 142.11C379.25 142.062 390.838 142.055 402.427 142.035C402.651 142.049 402.879 142.083 403.104 142.083C425.958 142.104 448.813 142.111 471.666 142.173C473.012 142.178 473.236 141.732 473.234 140.522C473.22 123.835 473.255 107.146 473.269 90.4595C473.269 89.9725 473.46 89.4347 473.051 88.9993C472.502 88.5371 471.852 88.7712 471.254 88.7712C463.295 88.7504 455.333 88.7571 447.374 88.7571C445.086 88.7551 445.088 88.7551 445.083 86.5504C445.07 76.2214 445.049 65.8923 445.035 55.5618C444.744 53.7334 445.612 53.3992 447.305 53.4217" fill="#E6243D"/>
</svg>
