<svg width="322" height="97" viewBox="0 0 322 97" fill="none" xmlns="http://www.w3.org/2000/svg">
<path d="M41.9008 67.0605C38.1243 67.0651 34.3478 67.0555 30.5708 67.0696C30.0094 67.0728 29.4133 66.973 28.921 67.3458C28.9178 67.3408 28.9163 67.3268 28.9116 67.3222C27.3296 66.2069 26.894 64.6343 27.0545 62.7951C27.1169 62.073 27.0732 61.3414 27.0639 60.6152C27.0127 57.5944 27.1788 54.5708 26.97 51.5527C26.9465 51.4421 26.9104 51.3355 26.8827 51.228C27.1066 50.8429 27.0751 50.3938 27.0709 49.9648C27.024 44.0402 27.1277 38.1199 27.3045 32.1984C27.3711 29.9742 28.0624 29.23 30.315 29.2203C34.2465 29.2015 38.1768 29.2109 42.1068 29.217C42.4164 29.217 42.7249 29.2217 43.0305 29.268C44.2571 29.4545 44.9569 30.1627 45.0606 31.4108C45.1962 33.0193 45.3383 34.625 45.3332 36.2461C45.3003 45.4771 45.3993 54.7096 45.1009 63.9381C45.0207 66.401 44.4178 67.0569 41.9024 67.061L41.9008 67.0605ZM72.3238 9.16162V9.16036C72.0403 5.99452 70.5731 3.53945 67.8986 1.8109C66.4797 0.634587 64.7746 0.0560451 63.0089 0.0422261C54.4612 -0.0280402 45.9152 0.00952198 37.3689 0.0142064C31.3492 0.0155649 25.3313 0.0174944 19.3116 0.0174944C16.2693 0.016136 13.2257 0.0127768 10.1835 0.0127768C4.50677 0.0161027 0.0044216 4.51239 0.00301403 10.1954C-0.00167788 35.4754 -0.000270307 60.7544 0.00301403 86.0314C0.00301403 91.8277 4.35766 96.2732 10.1934 96.3253C16.5518 96.3838 22.9117 96.3398 29.2697 96.3349C30.5018 96.3349 31.7326 96.3022 32.9647 96.2854C36.3569 96.2854 39.7478 96.2868 43.141 96.2886C49.4981 96.2918 55.8563 96.2981 62.2136 96.2981C67.9195 96.2995 72.3762 91.8467 72.3862 86.1307C72.4095 72.2785 72.4386 58.4267 72.4523 44.5729C72.4619 33.1813 72.4555 21.7907 72.4477 10.4001C72.4477 9.98596 72.5512 9.55361 72.3233 9.15877" fill="#15A6D5"/>
<path d="M140.484 45.4555C140.481 47.0543 139.418 48.098 137.785 48.1397C136.085 48.1819 134.386 48.1207 132.689 48.1878C131.87 48.2205 131.659 47.9615 131.666 47.1591C131.703 42.6569 131.684 38.153 131.684 33.6508C131.684 29.1471 131.703 24.6445 131.666 20.1423C131.661 19.3539 131.831 19.0736 132.671 19.1081C134.367 19.1756 136.069 19.1096 137.767 19.1316C139.385 19.155 140.484 20.2056 140.487 21.7879C140.501 29.6769 140.501 37.566 140.486 45.4537L140.484 45.4555ZM95.3242 0.0231608C95.2914 0.0882743 95.2914 0.143102 95.296 0.195568H95.2536C95.2727 0.136075 95.296 0.0793738 95.3242 0.0231608ZM155.352 9.74842C155.343 4.62222 150.649 0.0339617 145.492 0.0330249C128.77 0.023656 112.046 0.0282741 95.322 0.0235896C91.4692 0.0189052 87.6151 0.0222083 83.761 0.000144585C83.122 -0.00453983 82.7779 0.100856 82.7806 0.86718C82.818 7.74297 82.818 14.6189 82.8276 21.4943C82.8089 21.9552 82.7706 22.4164 82.7706 22.8762C82.7847 34.925 82.813 46.9745 82.813 59.022C82.813 71.0309 82.7802 83.0412 82.7802 95.0514C82.7802 95.4628 82.5258 95.9672 83.0249 96.2983C83.256 96.3078 83.4866 96.3219 83.7177 96.3219C101.369 96.3219 119.018 96.3219 136.666 96.3205C136.782 96.3205 136.899 96.3065 137.013 96.3237C137.54 96.3886 137.763 96.2162 137.756 95.6361C137.713 91.4033 137.703 87.1701 137.684 82.9382C137.689 81.6251 137.703 80.3106 137.712 78.9975C137.722 75.495 137.762 71.992 137.731 68.4909C137.722 67.6708 137.967 67.4512 138.772 67.4653C141.243 67.5025 143.719 67.5479 146.185 67.4322C150.984 67.2018 155.353 62.6651 155.36 57.9112C155.383 41.8567 155.383 25.8041 155.355 9.75055" fill="#42AF65"/>
<path d="M238.139 81.0342C238.148 80.035 237.811 79.8304 236.886 79.8386C232.106 79.8808 227.326 79.8341 222.546 79.8808C221.6 79.8903 221.307 79.6572 221.312 78.6811C221.355 71.4851 221.35 64.2877 221.312 57.0908C221.309 56.1532 221.518 55.8534 222.505 55.8648C227.362 55.9169 232.22 55.8739 237.077 55.902C237.871 55.907 238.139 55.6924 238.132 54.8737C238.099 50.4858 238.09 46.0984 238.137 41.7103C238.146 40.7659 237.826 40.5629 236.947 40.5685C232.128 40.6059 227.31 40.567 222.493 40.6059C221.62 40.6106 221.304 40.4265 221.31 39.4739C221.352 32.2003 221.348 24.9257 221.314 17.6522C221.31 16.8059 221.52 16.5353 222.402 16.5436C227.181 16.5858 231.962 16.5671 236.742 16.5577C237.15 16.5564 237.59 16.7024 237.97 16.4167C238.017 16.2733 238.1 16.1295 238.1 15.9844C238.11 10.9101 238.099 5.83507 238.124 0.759935C238.127 0.108236 237.843 0.00881185 237.288 0.0129811C234.977 0.0317189 232.667 0.017589 230.357 0.0222736C222.501 0.0363268 214.648 0.0505024 206.792 0.0598711C200.237 0.0598711 193.682 0.0611579 187.126 0.0611579C180.381 0.0471047 173.636 0.0597971 166.892 0.000257844C165.877 -0.0091108 165.61 0.233561 165.621 1.26357C165.719 11.0732 165.654 20.8844 165.718 30.6964C165.827 46.9361 165.746 63.1764 165.746 79.4191C165.746 84.6919 165.77 89.9633 165.728 95.2362C165.718 96.1669 166.005 96.386 166.893 96.371C169.975 96.3198 173.059 96.357 176.145 96.352C183.198 96.3429 190.25 96.3243 197.304 96.3148C197.379 96.3243 197.456 96.3475 197.532 96.3475C210.754 96.3524 223.976 96.3461 237.198 96.3756C238.019 96.3769 238.131 96.054 238.127 95.3609C238.108 90.5893 238.09 85.8163 238.141 81.0447" fill="#FFAD00"/>
<path d="M303.309 36.2301C308.782 36.2989 314.253 36.2487 319.727 36.3017C320.716 36.3111 321.025 36.1017 321.021 35.0494C320.979 23.7365 320.998 12.4231 320.984 1.11026C320.984 0.767825 321.206 0.342527 320.776 0.0719545C318.312 0.0705493 315.847 0.0685953 313.382 0.0672368C313.114 0.0531837 312.846 0.0252075 312.576 0.0252075C294.833 0.023849 277.087 0.023849 259.342 0.0252075C259.075 0.0252075 258.805 0.0531837 258.537 0.0672368C255.533 0.0531837 252.528 0.07661 249.526 0.00119056C248.61 -0.0222317 248.472 0.29825 248.474 1.11268C248.497 12.419 248.502 23.7253 248.46 35.0312C248.455 36.0957 248.793 36.2808 249.765 36.2752C255.696 36.2424 261.627 36.2785 267.558 36.294C267.563 43.9151 267.557 51.535 267.596 59.1565C267.601 60.0042 267.313 60.1598 266.541 60.1557C260.951 60.1276 255.362 60.1607 249.772 60.1185C248.768 60.109 248.38 60.2977 248.385 61.4257C248.436 71.7033 248.423 81.98 248.432 92.2576C248.432 92.6332 248.334 93.0305 248.575 93.3798C248.57 94.1105 248.594 94.8421 248.547 95.5697C248.509 96.1552 248.684 96.3666 249.309 96.3648C257.169 96.3321 265.026 96.3276 272.885 96.314C273.037 96.3231 273.192 96.3466 273.344 96.3466C288.842 96.3607 304.34 96.3652 319.836 96.4074C320.749 96.411 320.901 96.1081 320.9 95.288C320.89 83.9721 320.914 72.6559 320.923 61.3405C320.923 61.0103 321.053 60.6456 320.775 60.3503C320.403 60.0369 319.962 60.1956 319.557 60.1956C314.16 60.1816 308.761 60.1861 303.364 60.1861C301.812 60.1847 301.814 60.1847 301.81 58.6898C301.801 51.6856 301.787 44.6815 301.778 37.6764C301.58 36.4365 302.169 36.21 303.317 36.2252" fill="#E6243D"/>
</svg>
